<?xml version="1.0" standalone="no"?>
<!DOCTYPE svg PUBLIC "-//W3C//DTD SVG 20010904//EN"
 "http://www.w3.org/TR/2001/REC-SVG-20010904/DTD/svg10.dtd">
<svg version="1.0" xmlns="http://www.w3.org/2000/svg"
 width="630.000000pt" height="630.000000pt" viewBox="0 0 630.000000 630.000000"
 preserveAspectRatio="xMidYMid meet">
<metadata>
Created by potrace 1.11, written by Peter Selinger 2001-2013
</metadata>
<g transform="translate(0.000000,630.000000) scale(0.100000,-0.100000)"
fill="#000000" stroke="none">
<path d="M1 3678 l0 -2623 53 200 c496 1865 1406 3544 2674 4932 l103 113
-1415 0 -1416 0 1 -2622z"/>
<path d="M6134 6112 c-1509 -1021 -2677 -2434 -3396 -4107 -241 -561 -447
-1216 -567 -1810 -17 -82 -33 -160 -36 -173 l-5 -22 2085 0 2085 0 0 3110 c0
1711 -1 3110 -3 3110 -2 0 -75 -49 -163 -108z"/>
</g>
</svg>
